<svg width="200" height="40" viewBox="0 0 200 40" fill="none" xmlns="http://www.w3.org/2000/svg">
<g id="Logotipo Primary" clip-path="url(#clip0_647_3271)">
<path id="Vector" d="M13.2383 39.4366C12.8125 39.4366 12.4641 39.3052 12.1931 39.0423C11.9222 38.7794 11.7867 38.4413 11.7867 38.0281V8.84505H1.45157C1.02577 8.84505 0.6774 8.7136 0.406438 8.4507C0.13548 8.15025 0 7.8122 0 7.4366V1.40846C0 0.995305 0.13548 0.657275 0.406438 0.394368C0.6774 0.131456 1.02577 0 1.45157 0H32.6893C33.1151 0 33.4635 0.131456 33.7344 0.394368C34.0054 0.657275 34.1409 0.995305 34.1409 1.40846V7.4366C34.1409 7.8122 34.0054 8.15025 33.7344 8.4507C33.4635 8.7136 33.1151 8.84505 32.6893 8.84505H22.3541V38.0281C22.3541 38.4413 22.2187 38.7794 21.9477 39.0423C21.6768 39.3052 21.3284 39.4366 20.9025 39.4366H13.2383Z" fill="#5F3CAA"/>
<path id="Vector_2" d="M47.034 40C44.8276 40 42.8534 39.5117 41.1116 38.5352C39.4084 37.5587 38.0729 36.1314 37.1052 34.2535C36.1375 32.338 35.6537 30.0094 35.6537 27.2676V11.5493C35.6537 11.1361 35.7891 10.7981 36.0601 10.5352C36.3311 10.2723 36.6794 10.1408 37.1052 10.1408H44.3631C44.7889 10.1408 45.1372 10.2723 45.4082 10.5352C45.6792 10.7981 45.8146 11.1361 45.8146 11.5493V26.9296C45.8146 30.6103 47.5178 32.4507 50.924 32.4507C52.511 32.4507 53.769 31.9812 54.698 31.0422C55.666 30.0657 56.15 28.6948 56.15 26.9296V11.5493C56.15 11.1361 56.285 10.7981 56.556 10.5352C56.827 10.2723 57.1755 10.1408 57.6015 10.1408H64.859C65.285 10.1408 65.6335 10.2723 65.9045 10.5352C66.175 10.7981 66.3105 11.1361 66.3105 11.5493V38.0281C66.3105 38.4413 66.175 38.7793 65.9045 39.0422C65.6335 39.3051 65.285 39.4366 64.859 39.4366H58.124C57.737 39.4366 57.3885 39.3051 57.079 39.0422C56.808 38.7793 56.6725 38.4413 56.6725 38.0281V35.8873C55.666 37.2394 54.35 38.2723 52.724 38.9859C51.137 39.6619 49.2403 40 47.034 40Z" fill="#5F3CAA"/>
<path id="Vector_3" d="M74.592 39.4366C74.166 39.4366 73.8175 39.3051 73.547 39.0422C73.276 38.7793 73.1405 38.4413 73.1405 38.0281V11.5493C73.1405 11.1737 73.276 10.8544 73.547 10.5915C73.8175 10.2911 74.166 10.1408 74.592 10.1408H81.269C81.695 10.1408 82.0435 10.2911 82.314 10.5915C82.585 10.8544 82.7205 11.1737 82.7205 11.5493V13.8028C83.766 12.6385 85.0045 11.7371 86.4365 11.0986C87.9075 10.4601 89.5525 10.1408 91.372 10.1408H93.927C94.314 10.1408 94.643 10.2723 94.914 10.5352C95.2235 10.7981 95.3785 11.1361 95.3785 11.5493V17.3521C95.3785 17.7277 95.2235 18.0657 94.914 18.3662C94.643 18.6291 94.314 18.7605 93.927 18.7605H88.2945C86.7075 18.7605 85.469 19.1925 84.5785 20.0563C83.727 20.8826 83.3015 22.0657 83.3015 23.6056V38.0281C83.3015 38.4413 83.1465 38.7793 82.837 39.0422C82.566 39.3051 82.2175 39.4366 81.7915 39.4366H74.592Z" fill="#5F3CAA"/>
<path id="Vector_4" d="M100.958 39.4366C100.532 39.4366 100.184 39.3052 99.913 39.0423C99.642 38.7794 99.5065 38.4413 99.5065 38.0282V11.5493C99.5065 11.1362 99.642 10.7981 99.913 10.5352C100.184 10.2723 100.532 10.1409 100.958 10.1409H107.635C108.061 10.1409 108.409 10.2723 108.68 10.5352C108.951 10.7981 109.087 11.1362 109.087 11.5493V13.6902C110.093 12.5258 111.409 11.5493 113.035 10.7606C114.661 9.97185 116.577 9.57745 118.783 9.57745C121.028 9.57745 123.002 10.0658 124.706 11.0423C126.448 12.0188 127.802 13.4648 128.77 15.3803C129.776 17.2582 130.28 19.5681 130.28 22.3099V38.0282C130.28 38.4413 130.125 38.7794 129.815 39.0423C129.544 39.3052 129.215 39.4366 128.828 39.4366H121.512C121.125 39.4366 120.777 39.3052 120.467 39.0423C120.196 38.7794 120.061 38.4413 120.061 38.0282V22.6479C120.061 20.8827 119.615 19.5305 118.725 18.5916C117.874 17.615 116.596 17.1268 114.893 17.1268C113.306 17.1268 112.029 17.615 111.061 18.5916C110.132 19.5305 109.667 20.8827 109.667 22.6479V38.0282C109.667 38.4413 109.513 38.7794 109.203 39.0423C108.932 39.3052 108.603 39.4366 108.216 39.4366H100.958Z" fill="#5F3CAA"/>
<path id="Vector_5" d="M150.695 40C146.127 40 142.489 38.7981 139.779 36.3944C137.07 33.9906 135.657 30.4226 135.541 25.6902C135.541 25.4273 135.541 25.0892 135.541 24.6761C135.541 24.2629 135.541 23.9437 135.541 23.7183C135.657 20.7512 136.334 18.216 137.573 16.1127C138.85 13.9719 140.592 12.3568 142.799 11.2676C145.044 10.1409 147.656 9.57745 150.637 9.57745C154.043 9.57745 156.85 10.2348 159.056 11.5493C161.301 12.8639 162.985 14.6479 164.108 16.9014C165.23 19.155 165.791 21.7277 165.791 24.6197V25.9719C165.791 26.385 165.637 26.723 165.327 26.9859C165.056 27.2489 164.727 27.3803 164.34 27.3803H145.76C145.76 27.4179 145.76 27.4742 145.76 27.5493C145.76 27.6244 145.76 27.6996 145.76 27.7747C145.798 28.8639 145.992 29.8592 146.34 30.7606C146.689 31.662 147.231 32.3756 147.966 32.9014C148.702 33.4273 149.592 33.6902 150.637 33.6902C151.411 33.6902 152.05 33.5775 152.553 33.3521C153.095 33.0892 153.54 32.8075 153.889 32.5071C154.237 32.169 154.508 31.8873 154.701 31.662C155.05 31.2864 155.321 31.0611 155.514 30.9859C155.747 30.8733 156.095 30.8169 156.559 30.8169H163.759C164.146 30.8169 164.456 30.9296 164.688 31.155C164.959 31.3427 165.075 31.6244 165.037 32C164.998 32.6385 164.669 33.4085 164.049 34.3099C163.43 35.2113 162.521 36.1127 161.321 37.0141C160.159 37.878 158.688 38.5916 156.908 39.155C155.127 39.7183 153.056 40 150.695 40ZM145.76 21.8028H155.572V21.6902C155.572 20.4883 155.379 19.4366 154.992 18.5352C154.643 17.6338 154.082 16.939 153.308 16.4507C152.572 15.9625 151.682 15.7183 150.637 15.7183C149.592 15.7183 148.702 15.9625 147.966 16.4507C147.269 16.939 146.727 17.6338 146.34 18.5352C145.953 19.4366 145.76 20.4883 145.76 21.6902V21.8028Z" fill="#5F3CAA"/>
<path id="Vector_6" d="M168.995 39.4366C168.646 39.4366 168.337 39.3239 168.066 39.0986C167.834 38.8357 167.717 38.5352 167.717 38.1972C167.717 38.0845 167.737 37.953 167.775 37.8028C167.814 37.615 167.892 37.446 168.008 37.2958L177.704 24.3943L168.879 12.2817C168.763 12.1314 168.666 11.9812 168.588 11.831C168.55 11.6807 168.53 11.5305 168.53 11.3803C168.53 11.0422 168.666 10.7605 168.937 10.5352C169.208 10.2723 169.517 10.1408 169.866 10.1408H176.949C177.453 10.1408 177.82 10.2535 178.053 10.4789C178.324 10.7042 178.517 10.9108 178.633 11.0986L184.033 18.3662L189.375 11.1549C189.53 10.9671 189.723 10.7605 189.955 10.5352C190.226 10.2723 190.613 10.1408 191.117 10.1408H197.91C198.258 10.1408 198.549 10.2723 198.781 10.5352C199.052 10.7605 199.187 11.0422 199.187 11.3803C199.187 11.5305 199.168 11.6807 199.129 11.831C199.091 11.9812 199.013 12.1314 198.897 12.2817L189.839 24.3943L199.652 37.2958C199.807 37.446 199.903 37.5962 199.942 37.7465C199.981 37.8967 200 38.0469 200 38.1972C200 38.5352 199.865 38.8357 199.594 39.0986C199.362 39.3239 199.052 39.4366 198.665 39.4366H191.291C190.826 39.4366 190.478 39.3427 190.246 39.1549C190.013 38.9296 189.82 38.723 189.665 38.5352L183.801 30.8169L177.878 38.5352C177.724 38.6854 177.53 38.8732 177.298 39.0986C177.066 39.3239 176.698 39.4366 176.195 39.4366H168.995Z" fill="#5F3CAA"/>
</g>
<defs>
<clipPath id="clip0_647_3271">
<rect width="200" height="40" fill="white"/>
</clipPath>
</defs>
</svg>
