<svg width="32" height="32" viewBox="0 0 32 32" fill="none" xmlns="http://www.w3.org/2000/svg">
<g id="x-outline">
<path id="Vector" d="M17.882 16L24.927 8.95502C25.0541 8.83224 25.1555 8.68537 25.2253 8.52299C25.295 8.3606 25.3317 8.18595 25.3333 8.00922C25.3348 7.83249 25.3011 7.65722 25.2342 7.49365C25.1673 7.33008 25.0685 7.18147 24.9435 7.0565C24.8185 6.93153 24.6699 6.83269 24.5063 6.76577C24.3428 6.69885 24.1675 6.66517 23.9908 6.66671C23.814 6.66824 23.6394 6.70496 23.477 6.77472C23.3146 6.84447 23.1677 6.94587 23.045 7.07299L16 14.118L8.95502 7.07299C8.70399 6.83054 8.36778 6.69639 8.0188 6.69942C7.66982 6.70245 7.33599 6.84243 7.08921 7.08921C6.84243 7.33599 6.70245 7.66982 6.69942 8.0188C6.69639 8.36778 6.83054 8.70399 7.07299 8.95502L14.118 16L7.07299 23.045C6.94587 23.1677 6.84447 23.3146 6.77472 23.477C6.70496 23.6394 6.66824 23.814 6.66671 23.9908C6.66517 24.1675 6.69885 24.3428 6.76577 24.5063C6.83269 24.6699 6.93153 24.8185 7.0565 24.9435C7.18147 25.0685 7.33008 25.1673 7.49365 25.2342C7.65722 25.3011 7.83249 25.3348 8.00922 25.3333C8.18595 25.3317 8.3606 25.295 8.52299 25.2253C8.68537 25.1555 8.83224 25.0541 8.95502 24.927L16 17.882L23.045 24.927C23.296 25.1694 23.6322 25.3036 23.9812 25.3006C24.3302 25.2975 24.664 25.1576 24.9108 24.9108C25.1576 24.664 25.2975 24.3302 25.3006 23.9812C25.3036 23.6322 25.1694 23.296 24.927 23.045L17.882 16Z" fill="#1E2533"/>
</g>
</svg>
